#!OML:ASF E:\Style4\Style4.ASF
:FULLY-SPECIFIED
:DEGREES
739
root 0.0902027 16.7171 -2.32048 3.74411 0.471735 2.79066
lowerback 17.8515 2.48914 -1.14002
upperback 9.06382 3.07596 0.11199
thorax -0.357929 1.49919 0.216979
lowerneck 6.1508 -5.10038 -5.24471
upperneck -10.0414 -6.83776 5.70983
head -3.61009 -3.49539 2.90281
rclavicle -3.57812e-015 9.14409e-015
rhumerus 17.9952 8.35158 -68.5383
rradius 109.794
rwrist 19.237
rhand 21.2059 -5.27085
rfingers 7.12502
rthumb 45.6568 -28.5069
lclavicle -3.57812e-015 9.14409e-015
lhumerus 40.1562 -14.939 58.4239
lradius 115.935
lwrist -7.1603
lhand 8.68548 36.1814
lfingers 7.12502
lthumb 33.8785 62.992
rfemur -36.1386 -1.52539 15.9582
rtibia 56.1312
rfoot -22.3277 -11.3196
rtoes -12.0194
lfemur -35.4803 0.545378 -21.7642
ltibia 53.9308
lfoot -21.4854 5.89167
ltoes -16.8653
740
root 0.08906 16.7143 -2.31854 3.72041 0.482059 2.70999
lowerback 17.7953 2.48909 -1.04585
upperback 9.11999 3.09189 0.127782
thorax -0.265315 1.50953 0.181801
lowerneck 6.12112 -5.10219 -5.17831
upperneck -9.99693 -6.83533 5.6862
head -3.59511 -3.49526 2.88292
rclavicle 3.1408e-014 -1.35174e-014
rhumerus 17.8321 8.65379 -68.4872
rradius 110.788
rwrist 18.981
rhand 21.3488 -5.28701
rfingers 7.12502
rthumb 45.7895 -28.4687
lclavicle 3.1408e-014 -1.35174e-014
lhumerus 40.0849 -14.8787 58.4119
lradius 114.913
lwrist -7.43977
lhand 8.58385 36.4373
lfingers 7.12502
lthumb 33.782 63.2692
rfemur -36.1148 -1.54685 16.0611
rtibia 56.1597
rfoot -22.3799 -11.3461
rtoes -12.2291
lfemur -35.4974 0.522965 -21.6728
ltibia 54.0013
lfoot -21.4052 5.91708
ltoes -16.9308
741
root 0.0884384 16.7123 -2.31601 3.65563 0.500014 2.70844
lowerback 17.7873 2.45193 -1.04057
upperback 9.19118 3.0451 0.133858
thorax -0.184489 1.48599 0.195797
lowerneck 6.07384 -5.06809 -5.24374
upperneck -9.58652 -6.82606 5.50858
head -3.85384 -3.46009 3.13708
rclavicle 8.74653e-015 2.78299e-015
rhumerus 17.8181 9.02768 -68.4107
rradius 111.785
rwrist 18.6498
rhand 21.4926 -5.25484
rfingers 7.12502
rthumb 45.9229 -28.3814
lclavicle 8.74653e-015 2.78299e-015
lhumerus 39.9032 -14.77 58.3406
lradius 113.926
lwrist -7.68394
lhand 8.67278 37.2658
lfingers 7.12502
lthumb 33.8665 64.0791
rfemur -36.0437 -1.56871 16.0681
rtibia 56.1909
rfoot -22.4138 -11.3411
rtoes -12.0425
lfemur -35.4391 0.453081 -21.6619
ltibia 54.0407
lfoot -21.3945 5.9144
ltoes -16.706
742
root 0.0873294 16.7105 -2.31411 3.6022 0.50133 2.76137
lowerback 17.7417 2.40562 -1.10142
upperback 9.28669 2.97704 0.133359
thorax -0.0607521 1.44957 0.245865
lowerneck 5.96037 -5.0138 -5.37711
upperneck -9.51208 -6.75395 5.59559
head -3.80308 -3.42328 3.18009
rclavicle -9.93923e-015 -1.19271e-015
rhumerus 17.9736 9.39998 -68.2979
rradius 112.747
rwrist 18.3346
rhand 21.6274 -5.21913
rfingers 7.12502
rthumb 46.048 -28.2937
lclavicle -9.93923e-015 -1.19271e-015
lhumerus 39.6958 -14.6332 58.2381
lradius 113.086
lwrist -7.85616
lhand 8.71298 37.489
lfingers 7.12502
lthumb 33.9046 64.2939
rfemur -35.9966 -1.55287 16.0041
rtibia 56.2382
rfoot -22.4374 -11.3288
rtoes -11.8753
lfemur -35.3775 0.421059 -21.7178
ltibia 54.0587
lfoot -21.4988 6.0127
ltoes -16.9949
743
root 0.0874573 16.7079 -2.3125 3.57555 0.486072 2.81579
lowerback 17.6586 2.40979 -1.10335
upperback 9.36861 2.98344 0.0946497
thorax 0.0718132 1.45327 0.210847
lowerneck 5.91537 -5.02718 -5.30359
upperneck -9.48699 -6.7617 5.61095
head -3.78651 -3.43042 3.16905
rclavicle -2.78299e-014 2.06736e-014
rhumerus 18.0752 9.58516 -68.2038
rradius 113.745
rwrist 18.0471
rhand 21.7826 -5.18829
rfingers 7.12502
rthumb 46.1919 -28.2025
lclavicle -2.78299e-014 2.06736e-014
lhumerus 39.5755 -14.7125 58.0689
lradius 112.328
lwrist -8.01965
lhand 8.57245 37.1893
lfingers 7.12502
lthumb 33.7711 64.0235
rfemur -35.9922 -1.56184 15.9418
rtibia 56.2898
rfoot -22.4435 -11.3246
rtoes -12.0698
lfemur -35.3388 0.403455 -21.7727
ltibia 54.067
lfoot -21.5932 6.04854
ltoes -17.0655
744
root 0.0872254 16.7041 -2.31252 3.54856 0.465453 2.87009
lowerback 17.6893 2.4466 -1.14907
upperback 9.36617 3.02363 0.0777021
thorax 0.0517459 1.47223 0.21046
lowerneck 5.97189 -5.05558 -5.18564
upperneck -9.46865 -6.79338 5.58573
head -3.7934 -3.44977 3.14204
rclavicle -1.35174e-014 7.95139e-016
rhumerus 18.1132 9.78002 -68.0902
rradius 114.724
rwrist 17.8181
rhand 21.715 -5.17866
rfingers 7.12502
rthumb 46.1292 -28.2192
lclavicle -1.35174e-014 7.95139e-016
lhumerus 39.3438 -14.8952 57.9748
lradius 111.455
lwrist -8.27293
lhand 8.49459 36.7974
lfingers 7.12502
lthumb 33.6972 63.6478
rfemur -36.0023 -1.56586 15.8809
rtibia 56.3439
rfoot -22.48 -11.2835
rtoes -12.0897
lfemur -35.311 0.392895 -21.8265
ltibia 54.0853
lfoot -21.5444 5.98112
ltoes -16.6024
745
root 0.0887478 16.7031 -2.31226 3.52327 0.449369 2.86779
lowerback 17.7099 2.44579 -1.18929
upperback 9.3598 3.01668 0.110889
thorax 0.0306512 1.46651 0.268016
lowerneck 6.07256 -5.05366 -5.19953
upperneck -9.45598 -6.79356 5.61807
head -3.80737 -3.4517 3.16014
rclavicle -1.51076e-014 8.34896e-015
rhumerus 18.3066 10.0693 -67.9143
rradius 115.661
rwrist 17.6142
rhand 21.5849 -5.0364
rfingers 7.12502
rthumb 46.0086 -28.1274
lclavicle -1.51076e-014 8.34896e-015
lhumerus 38.9489 -14.9485 57.9011
lradius 110.653
lwrist -8.33175
lhand 8.49885 36.3969
lfingers 7.12502
lthumb 33.7012 63.2465
rfemur -35.9891 -1.57263 15.8824
rtibia 56.3776
rfoot -22.522 -11.2687
rtoes -12.094
lfemur -35.2966 0.387569 -21.8359
ltibia 54.1283
lfoot -21.505 6.03394
ltoes -16.7157
746
root 0.0915109 16.7015 -2.31224 3.52197 0.410617 2.81275
lowerback 17.6784 2.42483 -1.11948
upperback 9.3791 3.00033 0.117462
thorax 0.0706838 1.46035 0.240385
lowerneck 6.01959 -5.04804 -5.14023
upperneck -9.31897 -6.78004 5.61689
head -3.75119 -3.44747 3.14016
rclavicle 1.51076e-014 -1.07344e-014
rhumerus 18.6151 10.2092 -67.8319
rradius 116.553
rwrist 17.3877
rhand 21.653 -4.82601
rfingers 7.12502
rthumb 46.0717 -27.8906
lclavicle 1.51076e-014 -1.07344e-014
lhumerus 38.4945 -15.0365 57.7183
lradius 110.062
lwrist -8.35628
lhand 8.50808 36.3314
lfingers 7.12502
lthumb 33.71 63.1791
rfemur -36.011 -1.53583 15.9338
rtibia 56.401
rfoot -22.5001 -11.2808
rtoes -12.0526
lfemur -35.3218 0.420148 -21.797
ltibia 54.1844
lfoot -21.5435 6.13484
ltoes -17.0739
747
root 0.0948651 16.6974 -2.31285 3.56073 0.35897 2.78458
lowerback 17.6111 2.40094 -1.08102
upperback 9.40642 2.97606 0.126919
thorax 0.136129 1.44898 0.23638
lowerneck 5.85808 -5.01706 -5.07662
upperneck -9.14601 -6.73172 5.57752
head -3.66472 -3.42359 3.09842
rclavicle 7.95139e-015 -1.31198e-014
rhumerus 19.0647 10.2767 -67.7397
rradius 117.437
rwrist 16.9966
rhand 21.7401 -4.67898
rfingers 7.12502
rthumb 46.1525 -27.7097
lclavicle 7.95139e-015 -1.31198e-014
lhumerus 38.0278 -15.1509 57.5226
lradius 109.566
lwrist -8.49431
lhand 8.32501 36.4752
lfingers 7.12502
lthumb 33.536 63.3607
rfemur -36.0887 -1.52035 15.9593
rtibia 56.4251
rfoot -22.4132 -11.2591
rtoes -12.0266
lfemur -35.3979 0.423212 -21.7671
ltibia 54.2395
lfoot -21.6093 6.06053
ltoes -16.2651
748
root 0.0980165 16.6944 -2.31354 3.59703 0.314117 2.78423
lowerback 17.5381 2.36099 -1.10535
upperback 9.43023 2.92187 0.144923
thorax 0.197718 1.42023 0.281748
lowerneck 5.8319 -5.00062 -5.01183
upperneck -9.13493 -6.71198 5.47431
head -3.66201 -3.41118 3.04889
rclavicle -2.0276e-014 2.78299e-014
rhumerus 19.6212 10.418 -67.5889
rradius 118.278
rwrist 16.5696
rhand 21.7881 -4.71905
rfingers 7.12502
rthumb 46.1971 -27.7311
lclavicle -2.0276e-014 2.78299e-014
lhumerus 37.5296 -15.2337 57.3443
lradius 109.087
lwrist -8.70462
lhand 8.23438 36.3474
lfingers 7.12502
lthumb 33.4498 63.2516
rfemur -36.1506 -1.50191 15.9459
rtibia 56.4399
rfoot -22.4092 -11.1589
rtoes -11.7251
lfemur -35.4607 0.408125 -21.7654
ltibia 54.2849
lfoot -21.6586 6.03284
ltoes -16.0449
749
root 0.101198 16.6954 -2.31383 3.60199 0.277789 2.72878
lowerback 17.5013 2.31496 -1.09759
upperback 9.44766 2.8642 0.187199
thorax 0.234155 1.39029 0.333427
lowerneck 5.89127 -4.99728 -4.95791
upperneck -9.17088 -6.71169 5.3934
head -3.6904 -3.40947 3.01573
rclavicle -3.65764e-014 2.14687e-014
rhumerus 20.1622 10.5738 -67.4503
rradius 119.121
rwrist 16.1973
rhand 21.8474 -4.69044
rfingers 7.12502
rthumb 46.252 -27.6793
lclavicle -3.65764e-014 2.14687e-014
lhumerus 36.9905 -15.344 57.1446
lradius 108.645
lwrist -8.94208
lhand 8.29502 36.0454
lfingers 7.12502
lthumb 33.5075 62.9372
rfemur -36.1645 -1.46953 15.9969
rtibia 56.4417
rfoot -22.4116 -11.1384
rtoes -11.5485
lfemur -35.4709 0.416961 -21.7132
ltibia 54.3098
lfoot -21.7233 6.06883
ltoes -16.3252
